<?xml version="1.0" encoding="UTF-8"?>
<svg width="22px" height="21px" viewBox="0 0 22 21" version="1.1" xmlns="http://www.w3.org/2000/svg" xmlns:xlink="http://www.w3.org/1999/xlink">
    <!-- Generator: Sketch 51.2 (57519) - http://www.bohemiancoding.com/sketch -->
    <title>unchecked-checkbox</title>
    <desc>Created with Sketch.</desc>
    <defs>
        <linearGradient x1="50%" y1="13.9418428%" x2="50%" y2="86.2770311%" id="linearGradient-1">
            <stop stop-color="#D8D8D8" offset="0%"></stop>
            <stop stop-color="#E9E9E9" offset="100%"></stop>
        </linearGradient>
        <linearGradient x1="50%" y1="0%" x2="50%" y2="100%" id="linearGradient-2">
            <stop stop-color="#C1C1C1" offset="0%"></stop>
            <stop stop-color="#D3D3D3" offset="100%"></stop>
        </linearGradient>
    </defs>
    <g id="unchecked-checkbox" stroke="none" stroke-width="1" fill="none" fill-rule="evenodd">
        <g id="Form_-Checkbox" transform="translate(0.000000, 3.000000)">
            <path d="M0,3 C0,1.34314575 1.34314575,0 3,0 L15,0 C16.6568542,0 18,1.34314575 18,3 L18,15 C18,16.6568542 16.6568542,18 15,18 L3,18 C1.34314575,18 0,16.6568542 0,15 L0,3 Z" id="Path" fill="#DDDDDD"></path>
            <path d="M1,3 C1,1.8954305 1.8954305,1 3,1 L15,1 C16.1045695,1 17,1.8954305 17,3 L17,15 C17,16.1045695 16.1045695,17 15,17 L3,17 C1.8954305,17 1,16.1045695 1,15 L1,3 Z" id="Path-2" fill="#FFFFFF"></path>
            <rect id="Rectangle" stroke="url(#linearGradient-2)" fill="url(#linearGradient-1)" fill-rule="nonzero" x="3.5" y="3.5" width="11" height="11"></rect>
        </g>
    </g>
</svg>